<svg xmlns="http://www.w3.org/2000/svg" xmlns:xlink="http://www.w3.org/1999/xlink" width="674" height="391.311" viewBox="0 0 674 391.311">
  <defs>
    <clipPath id="clip-path">
      <rect id="Rectangle_47" data-name="Rectangle 47" width="665.044" height="389.021" fill="none"/>
    </clipPath>
  </defs>
  <g id="Group_377" data-name="Group 377" transform="translate(-64.266 -147.957)">
    <g id="cloud" transform="translate(89.148 192.208)">
      <path id="Path_6404" data-name="Path 6404" d="M203.4,709.267c55.733-22.931,110.566-114.777,84.964-189.719C243.94,389.5,416.34,310.681,508.4,402.74c58.4,58.4,199.659-32.6,266.211,66.553,35.565,52.984-15.838,137.435-13.7,178.406,2.023,38.766,53.651,61.568,53.651,61.568Z" transform="translate(-199.626 -362.792)" fill="#d9f3ff"/>
      <path id="Path_6405" data-name="Path 6405" d="M833.131,2039.649H186.119a1.053,1.053,0,0,1-1.053-1.053h0a1.053,1.053,0,0,1,1.053-1.053H833.131a1.053,1.053,0,0,1,1.053,1.053h0A1.053,1.053,0,0,1,833.131,2039.649Z" transform="translate(-185.066 -1692.589)"/>
    </g>
    <g id="call_center" data-name="call center" transform="translate(64.266 147.957)">
      <g id="Group_351" data-name="Group 351" transform="translate(0 0)">
        <g id="Group_350" data-name="Group 350" clip-path="url(#clip-path)">
          <g id="Group_349" data-name="Group 349" transform="translate(146.639 129.452)">
            <g id="Group_335" data-name="Group 335" transform="translate(202.164)">
              <g id="Group_325" data-name="Group 325" transform="translate(119.128 35.248)">
                <g id="Group_324" data-name="Group 324">
                  <path id="Path_6406" data-name="Path 6406" d="M2469.974,1119.237l-12.322,13.611-21.608-23.441,14.626-5.573Z" transform="translate(-2415.452 -1071.65)" fill="#ffa46e"/>
                  <g id="Group_323" data-name="Group 323">
                    <g id="Group_322" data-name="Group 322">
                      <g id="Group_321" data-name="Group 321">
                        <g id="Group_320" data-name="Group 320">
                          <path id="Path_6407" data-name="Path 6407" d="M2381.161,998.89l-.751.392-7.463,3.894a4.132,4.132,0,0,1-5.592-1.69c-6.374-16.046-13.921-30.8-23.323-43.54a4.131,4.131,0,0,1,1.692-5.59l7.8-4.071.415-.216a4.128,4.128,0,0,1,5.59,1.692,220.585,220.585,0,0,1,23.323,43.538A4.132,4.132,0,0,1,2381.161,998.89Z" transform="translate(-2342.003 -947.578)" fill="#545454"/>
                          <path id="Path_6408" data-name="Path 6408" d="M2354.357,961.085l-9.511,4.981a3.748,3.748,0,0,1-5.074-1.534l-3.258-6.083a3.748,3.748,0,0,1,1.534-5.074l9.511-4.981a3.748,3.748,0,0,1,5.074,1.534l3.258,6.083A3.747,3.747,0,0,1,2354.357,961.085Z" transform="translate(-2336.069 -947.873)" fill="#333"/>
                          <path id="Path_6409" data-name="Path 6409" d="M2356.291,967.325l-7.461,3.883a3.231,3.231,0,0,1-4.374-1.322l-2.935-5.478a3.231,3.231,0,0,1,1.323-4.374l7.461-3.883a3.231,3.231,0,0,1,4.374,1.322l2.935,5.478A3.231,3.231,0,0,1,2356.291,967.325Z" transform="translate(-2340.094 -954.08)" fill="#6e6e6e"/>
                          <path id="Path_6410" data-name="Path 6410" d="M2453.634,1146.416l-9.511,4.981a3.748,3.748,0,0,1-5.073-1.534l-3.259-6.083a3.748,3.748,0,0,1,1.534-5.074l9.511-4.981a3.748,3.748,0,0,1,5.073,1.534l3.259,6.083A3.748,3.748,0,0,1,2453.634,1146.416Z" transform="translate(-2414.897 -1095.03)" fill="#333"/>
                        </g>
                        <path id="Path_6411" data-name="Path 6411" d="M2455.914,1153.3l-7.46,3.883a3.231,3.231,0,0,1-4.374-1.323l-2.935-5.478a3.231,3.231,0,0,1,1.323-4.373l7.461-3.883a3.231,3.231,0,0,1,4.374,1.322l2.935,5.478A3.231,3.231,0,0,1,2455.914,1153.3Z" transform="translate(-2419.198 -1101.751)" fill="#6e6e6e"/>
                      </g>
                    </g>
                  </g>
                </g>
                <path id="Path_6412" data-name="Path 6412" d="M2422.34,1104.418c-.745-.165-7.528-4.136-1.572-14.56,4.3-.331,4.767,5.187,3.971,6.618A17.158,17.158,0,0,0,2422.34,1104.418Z" transform="translate(-2401.395 -1060.541)" fill="#ffa46e"/>
                <path id="Path_6413" data-name="Path 6413" d="M2419.634,998.89l-.75.392c.162-.4.608-1.5,1.049-2.773.56-1.607-6.57-12.584-6.57-12.584s-7.622-1.049-11.187-8.041a17.575,17.575,0,0,1-.77-13.7s-3.7-6.5-5.383-10.207a7.246,7.246,0,0,0-4.028-3.689l.415-.216a4.128,4.128,0,0,1,5.59,1.692,220.6,220.6,0,0,1,23.323,43.538A4.131,4.131,0,0,1,2419.634,998.89Z" transform="translate(-2380.476 -947.578)" fill="#333"/>
                <path id="Path_6414" data-name="Path 6414" d="M2449.372,1033.709c2.008,1.057,4.158-.411,5.956,0,.926.212,1.1,1.615,1.9,2.151,4.054-5.708-3.758-20.229-10.516-23.363-.44-.2-5.087.242-4.845,7.388C2442.023,1024.364,2447.364,1032.651,2449.372,1033.709Z" transform="translate(-2420.071 -999.097)" fill="#ffa46e"/>
              </g>
              <path id="Path_6415" data-name="Path 6415" d="M2451,1306.267s0,.011,0,.016a14.109,14.109,0,0,1-.964,3.167c-2.109,4.825-7.164,8.945-16.552,10.518-14.557,1.1-35.86,2-54.816,3.358-5.448.39-10.7.817-15.546,1.3-20.051-5.174-32.085-35.815-8.582-42.314,2.659-.735,13.674-.947,27.173-.593,24.546.64,57.3,3.147,62.949,7.762A18.5,18.5,0,0,1,2451,1306.267Z" transform="translate(-2221.351 -1177.512)" fill="#fff"/>
              <g id="Group_329" data-name="Group 329" transform="translate(64.991)">
                <g id="Group_326" data-name="Group 326" transform="translate(19.682 76.773)">
                  <path id="Path_6416" data-name="Path 6416" d="M2210.392,1179.717c-12,9.68-28.984,12.231-41.6.818.122-6.33,1.876-25.2,1.448-31.352l39.133,5.278C2209.672,1161.882,2210.091,1172.265,2210.392,1179.717Z" transform="translate(-2168.792 -1149.183)" fill="#ffa46e"/>
                  <path id="Path_6417" data-name="Path 6417" d="M2221.033,1176.493c-.022-.567-.043-1.148-.064-1.685h-28.9l-8.736,1.84s12.388,20.452,38.55,23.46C2221.574,1191.48,2221.194,1180.88,2221.033,1176.493Z" transform="translate(-2180.339 -1169.53)" fill="#d46c42"/>
                </g>
                <g id="Group_328" data-name="Group 328">
                  <ellipse id="Ellipse_8" data-name="Ellipse 8" cx="4.817" cy="6.105" rx="4.817" ry="6.105" transform="translate(60.626 45.337) rotate(-2.846)" fill="#ffa46e"/>
                  <path id="Path_6418" data-name="Path 6418" d="M2151.331,876.914c-.194.663,8.234,30.975,7.191,38.544-8.794,22.682-23.665,30.775-47.84,13.507-3.562-4.141-14.594-27.185-14.787-27.4C2079.838,870.444,2139.315,844.267,2151.331,876.914Z" transform="translate(-2089.059 -844.278)" fill="#ffa46e"/>
                  <path id="Path_6419" data-name="Path 6419" d="M2129.838,847.9c5.183,1.213,6.993,15.173,8.494,19.432l.284-.808c1.306-58.145-95.376-29.137-55.908,18.274,2.86,1.747,5.935,7.495,7.662,11.651-.462-2.827,2.865-11.46,1.7-17.854,0,0-6.862-8.668-4.755-16.993,1.291-5.1,12.22-3.547,21.523-6.933C2118.3,851.223,2126.114,846.5,2129.838,847.9Z" transform="translate(-2073.233 -822.288)"/>
                  <path id="Path_6420" data-name="Path 6420" d="M2224.963,1041.506c1.166,3.222-2.162,4.443-3.356,1.231C2220.441,1039.516,2223.769,1038.3,2224.963,1041.506Z" transform="translate(-2190.853 -985.417)"/>
                  <path id="Path_6421" data-name="Path 6421" d="M2351.819,995.513c1.166,3.222-2.162,4.443-3.356,1.231C2347.3,993.522,2350.625,992.3,2351.819,995.513Z" transform="translate(-2291.58 -948.897)"/>
                  <path id="Path_6422" data-name="Path 6422" d="M2301.545,1046.316c6.522-2.079-2.792-9.594-4.713-11.536l-1.573-4.288a.55.55,0,0,0-1.033.379l1.67,4.551c2.973,2.59,7.179,7.057,6.892,8.543-.692,2.454-6.912,1.4-6.677,2.548C2296.064,1047.6,2299.537,1046.911,2301.545,1046.316Z" transform="translate(-2248.68 -977.879)" fill="#c75038"/>
                  <path id="Path_6423" data-name="Path 6423" d="M2254.946,1149.375c1.723-.632,2.871-1.143,3.039-1.219a.55.55,0,0,0-.452-1c-.152.069-15.244,6.779-21.154,2.37a.55.55,0,0,0-.77.112C2238.019,1154.684,2250.833,1150.915,2254.946,1149.375Z" transform="translate(-2202.164 -1070.754)" fill="#c75038"/>
                  <path id="Path_6424" data-name="Path 6424" d="M2194.495,1013.979c-4.89-.192,3.371-7.623,8.216-5.783a1.1,1.1,0,1,1-.437,2.156C2196.638,1009.5,2195.66,1013.446,2194.495,1013.979Z" transform="translate(-2168.331 -960.23)"/>
                  <path id="Path_6425" data-name="Path 6425" d="M2319.154,968.425c-4.267.172,1.6-7.007,8.339-5.443a1.1,1.1,0,0,1-.437,2.156C2321.435,964.259,2320.259,967.921,2319.154,968.425Z" transform="translate(-2267.351 -924.384)"/>
                  <path id="Path_6426" data-name="Path 6426" d="M2079.591,808.442s11.23-24.415,33.864-30.494,17.839,8.292,17.839,8.292c23.791-3.726-12.343,22.26-21.876,24.188C2100.812,812.793,2079.061,815.576,2079.591,808.442Z" transform="translate(-2078.274 -776.448)"/>
                  <g id="Group_327" data-name="Group 327" transform="translate(2.11 56.75)">
                    <ellipse id="Ellipse_9" data-name="Ellipse 9" cx="6.998" cy="8.87" rx="6.998" ry="8.87" transform="translate(0 8.511) rotate(-37.454)" fill="#ffa46e"/>
                    <path id="Path_6427" data-name="Path 6427" d="M2118.341,1102.385a.621.621,0,0,1-.762-.294c-2.246-4.272-3.939-5.058-4.748-5.145a1.581,1.581,0,0,0-1.336.491.624.624,0,0,1-.871.083.617.617,0,0,1-.093-.865,2.832,2.832,0,0,1,2.4-.947c1.885.181,3.82,2.134,5.75,5.806a.621.621,0,0,1-.26.838A.63.63,0,0,1,2118.341,1102.385Z" transform="translate(-2104.851 -1086.688)" fill="#c75038"/>
                  </g>
                </g>
              </g>
              <g id="Group_333" data-name="Group 333" transform="translate(39.697 96.794)">
                <g id="_03" data-name="03">
                  <g id="Group_332" data-name="Group 332">
                    <path id="Path_6428" data-name="Path 6428" d="M1973.994,1447.406c-.514,6.012-1.04,12.3-1.548,18.571h96.792l.7-182.256c-4.953-1.048-11.6-3.615-18.325-4.172-4.222,4.529-6.76,7.692-13.945,7.853a19.24,19.24,0,0,1-15.318-8.222c-34.481,3.4-52.385,15.471-52.385,15.471l15.9,110.433S1975.928,1424.778,1973.994,1447.406Z" transform="translate(-1965.94 -1272.425)" fill="#9eddff"/>
                    <path id="Path_6429" data-name="Path 6429" d="M2102.218,2152.858l-.849-8.616c-27.746,8.134-86.356,9.955-115.963,0-.255,2.981-.512,5.848-.77,8.616Z" transform="translate(-1977.592 -1959.306)" fill="#204f63"/>
                    <g id="Group_331" data-name="Group 331" transform="translate(39.45)">
                      <g id="Group_330" data-name="Group 330" transform="translate(21.827 15.207)">
                        <path id="Path_6430" data-name="Path 6430" d="M2262.628,1335.485l6.266-8.088-10.123-7.186-10.841,6.912,6.405,8.361Z" transform="translate(-2247.931 -1320.211)" fill="#3086b3"/>
                        <path id="Path_6431" data-name="Path 6431" d="M2304.958,1491.854l-12.572,20.688-12.053-20.033c2.876-36.92,1.559-84.577-.9-123.411l8.571.057C2296.111,1408.656,2302.87,1455.423,2304.958,1491.854Z" transform="translate(-2272.942 -1359.029)" fill="#3086b3"/>
                      </g>
                      <path id="Path_6432" data-name="Path 6432" d="M2319.335,1266.12l-4.473-4.654c-.38,4.727-9.139,10.852-14.3,12.1,4.638,3.95,8.22,6.942,12.883,14.138Z" transform="translate(-2267.897 -1258.359)" fill="#5bb9eb"/>
                      <path id="Path_6433" data-name="Path 6433" d="M2141.961,1254.871l6.729-8.49s13.494,10.085,25.939,15.207c-5.573,4.2-8.118,8.519-11.46,14.138Z" transform="translate(-2141.961 -1246.381)" fill="#5bb9eb"/>
                    </g>
                    <path id="Path_6434" data-name="Path 6434" d="M1950.433,1474.245h54.442c7.289-63.927.043-125.664-15.766-184.651-29.979,4.478-34.893,13.327-34.893,13.327l12.945,112.878Z" transform="translate(-1950.433 -1280.693)" fill="#fff"/>
                    <path id="Path_6435" data-name="Path 6435" d="M2398.979,1468.081h28.161l-7.322-79.584-4.848-97.824c-13.741-6.581-18.1-7.315-25.44-8.842C2399.577,1346.934,2403.082,1408.65,2398.979,1468.081Z" transform="translate(-2299.087 -1274.529)" fill="#fff"/>
                  </g>
                </g>
              </g>
              <path id="Path_6436" data-name="Path 6436" d="M2147.928,1887.411l.078-.018c6.324-1.53,1.541-33.837,1.541-33.837-9.69,2.04-20.31,33.837-20.31,33.837l.152.018Z" transform="translate(-2052.711 -1631.7)" fill="#276c9c"/>
              <path id="Path_6437" data-name="Path 6437" d="M1915.4,1450.4l-15.738,52.936,37.8,21.817c-16.2,4.689-22.091,20.883-28.77,36.2l-45.769-36.565,28.108-85.69Z" transform="translate(-1841.246 -1302.609)" fill="#d9f1ff"/>
              <g id="Group_334" data-name="Group 334" transform="translate(79.085 235.367)">
                <path id="Path_6438" data-name="Path 6438" d="M2189.862,1939.871l-36.438-.1-9.784-.028c-2.391-5.114-3.693-10.633,2.555-18.96,0,0,1.542-.147,3.909-.353,5.393-.469,15.068-1.244,20.52-1.274C2183.277,1919.083,2189.862,1939.871,2189.862,1939.871Z" transform="translate(-2141.661 -1919.154)" fill="#ffa46e"/>
                <path id="Path_6439" data-name="Path 6439" d="M2153.425,1944.681l-9.784-.028c-2.391-5.114-3.693-10.633,2.555-18.96,0,0,1.542-.147,3.909-.353C2149.6,1928.573,2148.445,1938.94,2153.425,1944.681Z" transform="translate(-2141.661 -1924.067)" fill="#d17743"/>
                <path id="Path_6440" data-name="Path 6440" d="M2287.425,1919.248c.387,0,11.362-.646,15.106,2.195s7.231,9.425,7.231,9.425-.646,1.42-3.744.387-6.069-5.81-6.069-5.81l-11.1-.775Z" transform="translate(-2257.402 -1919.179)" fill="#ffa46e"/>
                <path id="Path_6441" data-name="Path 6441" d="M2307.179,1964.193a.116.116,0,0,1-.114-.094c-2.236-11.584-11.775-14.117-11.87-14.141a.116.116,0,1,1,.057-.225c.1.024,9.779,2.594,12.042,14.323a.116.116,0,0,1-.092.136Z" transform="translate(-2263.501 -1943.431)" fill="#d66d2d"/>
                <path id="Path_6442" data-name="Path 6442" d="M2288.205,1986.719a.116.116,0,0,1-.108-.074c-1.886-4.843-10.5-8.2-10.591-8.238a.116.116,0,1,1,.083-.217c.088.033,8.8,3.431,10.724,8.37a.116.116,0,0,1-.066.15A.11.11,0,0,1,2288.205,1986.719Z" transform="translate(-2249.466 -1966.025)" fill="#d66d2d"/>
              </g>
              <path id="Path_6443" data-name="Path 6443" d="M1801.184,1351.138c-.789.243-57.443,83.625-40.225,109.782,6.249,9.493,79.25,29.538,79.25,29.538-3.414-9.445.1-21.3,14.391-36.9-1.363,0-49.215-17.651-49.215-17.651s28.258-53.441,28.712-67.522S1817.327,1346.156,1801.184,1351.138Z" transform="translate(-1757.703 -1231.599)" fill="#fff"/>
              <path id="Path_6444" data-name="Path 6444" d="M2523.932,1140.7s53.633,33.045,58.228,41.412c5.6,10.195.682,25.948-18.242,24.7s-54.908-43.176-54.908-43.176Z" transform="translate(-2354.26 -1065.676)" fill="#fff"/>
              <path id="Path_6445" data-name="Path 6445" d="M2543.042,1283.411c-13.427-7.992-34.093-31.516-34.3-31.752l.707-.619c.206.236,20.775,23.648,34.074,31.564Z" transform="translate(-2354.048 -1153.287)" fill="#d9f1ff"/>
              <path id="Path_6446" data-name="Path 6446" d="M2584.632,1417.007c-2.109,4.825-7.164,8.945-16.552,10.518-14.557,1.1-35.86,2-54.816,3.358-.889-5.086-2.128-12.426-2.128-12.426s25.954,7.106,48.215,6.191c10-.41,19.256-2.44,25.076-7.46C2584.5,1417.129,2584.565,1417.07,2584.632,1417.007Z" transform="translate(-2355.949 -1285.069)" fill="#f2faff"/>
              <path id="Path_6447" data-name="Path 6447" d="M2498.4,1205.76l-2.553,1.372-2.955-3.682,4.068-2.186Z" transform="translate(-2341.461 -1113.763)" fill="#333"/>
              <path id="Path_6448" data-name="Path 6448" d="M2508.685,1225.37a.433.433,0,0,1-.323-.72c2.316-2.606-1.687-12.763-3.426-16.456a.433.433,0,1,1,.783-.369c.265.563,6.457,13.837,3.29,17.4A.432.432,0,0,1,2508.685,1225.37Z" transform="translate(-2350.993 -1118.775)" fill="#333"/>
              <path id="Path_6449" data-name="Path 6449" d="M2519.657,1288.639a.433.433,0,0,1-.236-.8l4.189-2.715a.433.433,0,1,1,.47.726l-4.189,2.715A.432.432,0,0,1,2519.657,1288.639Z" transform="translate(-2362.371 -1180.298)" fill="#333"/>
              <path id="Path_6450" data-name="Path 6450" d="M2521.169,1295.442a.433.433,0,0,1-.236-.8l4.189-2.715a.433.433,0,1,1,.471.726l-4.189,2.715A.432.432,0,0,1,2521.169,1295.442Z" transform="translate(-2363.571 -1185.7)" fill="#333"/>
              <path id="Path_6451" data-name="Path 6451" d="M2522.681,1302.244a.433.433,0,0,1-.236-.8l4.189-2.715a.433.433,0,0,1,.471.726l-4.189,2.715A.43.43,0,0,1,2522.681,1302.244Z" transform="translate(-2364.772 -1191.101)" fill="#333"/>
              <path id="Path_6452" data-name="Path 6452" d="M2524.192,1309.048a.433.433,0,0,1-.236-.8l4.189-2.715a.433.433,0,0,1,.471.726l-4.189,2.715A.43.43,0,0,1,2524.192,1309.048Z" transform="translate(-2365.972 -1196.503)" fill="#333"/>
              <path id="Path_6453" data-name="Path 6453" d="M2525.7,1315.85a.433.433,0,0,1-.236-.8l4.189-2.715a.433.433,0,1,1,.471.726l-4.189,2.715A.428.428,0,0,1,2525.7,1315.85Z" transform="translate(-2367.172 -1201.905)" fill="#333"/>
              <path id="Path_6454" data-name="Path 6454" d="M2527.216,1322.652a.433.433,0,0,1-.236-.8l4.189-2.715a.433.433,0,0,1,.471.726l-4.189,2.715A.433.433,0,0,1,2527.216,1322.652Z" transform="translate(-2368.373 -1207.306)" fill="#333"/>
              <path id="Path_6455" data-name="Path 6455" d="M2528.727,1329.455a.433.433,0,0,1-.236-.8l4.189-2.715a.433.433,0,1,1,.47.726l-4.189,2.715A.431.431,0,0,1,2528.727,1329.455Z" transform="translate(-2369.573 -1212.707)" fill="#333"/>
              <path id="Path_6456" data-name="Path 6456" d="M2530.239,1336.257a.433.433,0,0,1-.236-.8l4.189-2.715a.433.433,0,0,1,.47.726l-4.189,2.715A.432.432,0,0,1,2530.239,1336.257Z" transform="translate(-2370.773 -1218.108)" fill="#333"/>
              <path id="Path_6457" data-name="Path 6457" d="M2531.751,1343.06a.433.433,0,0,1-.236-.8l4.189-2.715a.433.433,0,0,1,.471.727l-4.189,2.715A.431.431,0,0,1,2531.751,1343.06Z" transform="translate(-2371.974 -1223.51)" fill="#333"/>
              <path id="Path_6458" data-name="Path 6458" d="M2533.262,1349.863a.433.433,0,0,1-.236-.8l4.189-2.715a.433.433,0,1,1,.471.726l-4.189,2.715A.433.433,0,0,1,2533.262,1349.863Z" transform="translate(-2373.174 -1228.912)" fill="#333"/>
              <path id="Path_6459" data-name="Path 6459" d="M2534.774,1356.665a.433.433,0,0,1-.236-.8l4.189-2.715a.433.433,0,0,1,.471.726l-4.189,2.715A.432.432,0,0,1,2534.774,1356.665Z" transform="translate(-2374.374 -1234.313)" fill="#333"/>
              <path id="Path_6460" data-name="Path 6460" d="M2536.286,1363.468a.433.433,0,0,1-.236-.8l4.189-2.715a.433.433,0,0,1,.471.726l-4.189,2.715A.429.429,0,0,1,2536.286,1363.468Z" transform="translate(-2375.575 -1239.714)" fill="#333"/>
              <path id="Path_6461" data-name="Path 6461" d="M2537.8,1370.271a.433.433,0,0,1-.236-.8l4.189-2.715a.433.433,0,0,1,.471.726l-4.189,2.715A.43.43,0,0,1,2537.8,1370.271Z" transform="translate(-2376.775 -1245.116)" fill="#333"/>
              <path id="Path_6462" data-name="Path 6462" d="M2539.309,1377.073a.432.432,0,0,1-.235-.8l4.188-2.715a.433.433,0,0,1,.471.727l-4.189,2.715A.43.43,0,0,1,2539.309,1377.073Z" transform="translate(-2377.975 -1250.517)" fill="#333"/>
              <path id="Path_6463" data-name="Path 6463" d="M2540.82,1383.875a.433.433,0,0,1-.236-.8l4.189-2.715a.433.433,0,1,1,.471.726l-4.189,2.715A.43.43,0,0,1,2540.82,1383.875Z" transform="translate(-2379.175 -1255.918)" fill="#333"/>
              <path id="Path_6464" data-name="Path 6464" d="M2542.332,1390.677a.433.433,0,0,1-.235-.8l4.188-2.715a.433.433,0,1,1,.471.726l-4.189,2.715A.432.432,0,0,1,2542.332,1390.677Z" transform="translate(-2380.375 -1261.319)" fill="#333"/>
              <path id="Path_6465" data-name="Path 6465" d="M2552.44,1456.589a.432.432,0,0,1-.425-.516c4.915-25.124,2.715-47.549-.121-51.387a2.344,2.344,0,0,0-3.046-.565.433.433,0,1,1-.424-.754,3.173,3.173,0,0,1,4.166.8c2.807,3.8,5.448,25.62.274,52.067A.433.433,0,0,1,2552.44,1456.589Z" transform="translate(-2385.381 -1273.885)" fill="#333"/>
            </g>
            <g id="Group_348" data-name="Group 348" transform="translate(0 5.117)">
              <path id="Path_6466" data-name="Path 6466" d="M1130.08,887.488s.426,42.768,32.98,46.81c29.15.851,44.454,2.442,32.532-55.159C1188.358,853.394,1130.505,859.827,1130.08,887.488Z" transform="translate(-1057.19 -850.216)" fill="#c95138"/>
              <path id="Path_6467" data-name="Path 6467" d="M1127.115,1450.368H1009.506l8.1-161.021c32.571-13.535,66.169-11.57,101.419,0Z" transform="translate(-961.451 -1181.335)" fill="#9eddff"/>
              <path id="Path_6468" data-name="Path 6468" d="M1073.237,1396.04c0,1.406-4.436,63.357,12.153,88.1s-21.65,59.328-21.65,59.328C1028.031,1531.378,1049.9,1386.761,1073.237,1396.04Z" transform="translate(-989.551 -1273.198)" fill="#66c2f5"/>
              <g id="Group_336" data-name="Group 336" transform="translate(86.204 67.551)">
                <path id="Path_6469" data-name="Path 6469" d="M1247.081,1166.8s-3.44,13.01-17.391,13.6-18.229-13.6-18.229-13.6l2.978-23.472,1.786-14.072h26.093l2.923,23.039Z" transform="translate(-1208.013 -1129.253)" fill="#f7a594"/>
                <path id="Path_6470" data-name="Path 6470" d="M1256.72,1152.292c-12.618,2.165-23.989-2.986-30.8-8.967l1.786-14.072H1253.8Z" transform="translate(-1219.491 -1129.253)" fill="#de7964"/>
                <path id="Path_6471" data-name="Path 6471" d="M1199.23,1235.957c0,.9,16.239,28.689,16.239,28.689s-14.074,9.563-14.074,8.841-6.676-26.524-6.676-26.524Z" transform="translate(-1194.719 -1213.979)" fill="#80d3ff"/>
                <path id="Path_6472" data-name="Path 6472" d="M1311.389,1242.965c0,.9-17.682,27.606-17.682,27.606s12.991,10.646,12.991,9.924,9.2-26.524,9.2-26.524Z" transform="translate(-1273.318 -1219.543)" fill="#80d3ff"/>
              </g>
              <path id="Path_6473" data-name="Path 6473" d="M985.1,1467.782l-40.98-2.57,15.768-81.249-.023-.407-1.243-21.494-.494-8.56-1.429-24.735-1.31-22.668-.546-9.458a118.128,118.128,0,0,1,18.491-9.158,77.569,77.569,0,0,1,20.319-5.2C991.923,1362.762,996.413,1407.733,985.1,1467.782Z" transform="translate(-909.531 -1183.21)" fill="#fff"/>
              <g id="Group_337" data-name="Group 337" transform="translate(0 110.976)">
                <path id="Path_6474" data-name="Path 6474" d="M848.027,1389.029a153.011,153.011,0,0,1-14.422,13.014c-2.566,2-5.325,3.989-8.316,5.915a114.73,114.73,0,0,1-32.912,14.336,11.127,11.127,0,0,1-4.244.79c-10.521-.236-15.507-18.014-9.053-33.417a34.571,34.571,0,0,1,9.878-13.386l33.1-24.286,14.779-10.845.042-.022C852.481,1333.15,866.69,1372.905,848.027,1389.029Z" transform="translate(-776.2 -1340.082)" fill="#fff"/>
                <path id="Path_6475" data-name="Path 6475" d="M836.035,1583.773l-2.43,9.42-7.073,27.409-1.243-21.494a114.744,114.744,0,0,1-32.912,14.336,11.132,11.132,0,0,1-4.244.79c-10.521-.236-15.507-18.014-9.053-33.417.567,9.648,2.908,18.077,9.019,19.978,5.307,1.651,12.535.219,19.768-2.391a122.855,122.855,0,0,0,16.927-7.856C831.4,1586.912,836.035,1583.773,836.035,1583.773Z" transform="translate(-776.2 -1531.232)" fill="#d9f1ff"/>
              </g>
              <path id="Path_6476" data-name="Path 6476" d="M1387.712,1289.818c19.117,1.821,36.481,11.255,36.481,11.255l-4.9,88.875,15.768,81.249h-53.8C1384.934,1438.857,1394.543,1365.9,1387.712,1289.818Z" transform="translate(-1256.632 -1189.195)" fill="#fff"/>
              <path id="Path_6477" data-name="Path 6477" d="M1397.776,1339.009s23.477,35.626,27.407,93.339c1.085,15.927-34.986,71.141-34.986,71.141h-41.551l40.891-62.986s-28.956-58.637-20.712-77.764S1388.448,1334.539,1397.776,1339.009Z" transform="translate(-1230.737 -1227.362)" fill="#fff"/>
              <path id="Path_6478" data-name="Path 6478" d="M1351.167,1725.349l-.627-.394,43.021-68.344-13.731-38,.7-.251,13.854,38.339-.1.153Z" transform="translate(-1232.242 -1450.066)" fill="#d9f1ff"/>
              <path id="Path_6479" data-name="Path 6479" d="M1099.982,1236.1c-2.02,19.976-7.619,100.726-7.619,100.726-12.363-27.067-17.908-46.711-17.908-46.711l8.978-9.651-14.4-23.968C1078.951,1242.775,1099.982,1236.1,1099.982,1236.1Z" transform="translate(-1008.717 -1146.544)" fill="#d9f1ff"/>
              <path id="Path_6480" data-name="Path 6480" d="M1376.32,1236.807c1.015,21.756,11.068,51.136,9.09,99.87,12.363-27.067,16.06-46.25,16.06-46.25l-8.978-9.651,14.4-23.968C1399.241,1245.377,1376.32,1236.807,1376.32,1236.807Z" transform="translate(-1252.711 -1147.103)" fill="#d9f1ff"/>
              <g id="Group_338" data-name="Group 338" transform="translate(104.966 64.499)">
                <path id="Path_6481" data-name="Path 6481" d="M1313.73,1226.074s-35.2-9.973-26.552-40.187c4.266-14.906,29.652-22.042,15.774-44.84-.061-.1-.124-.2-.188-.308l-1.894-16.791s13.144-3.113,17.987-9.512c-3.617,9.685.517,14.534,2.644,16.564,8.356,7.977,17.157,16.411,17.282,30.766C1339.023,1189.036,1311.3,1188.416,1313.73,1226.074Z" transform="translate(-1285.812 -1114.436)" fill="#c95138"/>
              </g>
              <g id="Group_343" data-name="Group 343" transform="translate(70.098)">
                <path id="Path_6482" data-name="Path 6482" d="M1211.625,853.883c6.244,8.195-6.023,31.359-26.973,31.431-13.218-.525-34.071-13-28.675-39.033-3.778-21.72,9.605-42.243,28.675-42.243S1215.874,830.982,1211.625,853.883Z" transform="translate(-1147.158 -803.473)" fill="#f7a594"/>
                <circle id="Ellipse_10" data-name="Ellipse 10" cx="6.254" cy="6.254" r="6.254" transform="translate(61.04 43.004)" fill="#f7a594"/>
                <path id="Path_6483" data-name="Path 6483" d="M1180.021,817.448c-8.97,17.939-41.862,26.213-41.862,26.213l-5.2.752-1.449.21a44.228,44.228,0,0,1,7.258-30.172,30.458,30.458,0,0,1,25.939-13.126,31.216,31.216,0,0,1,6.792.666C1177.441,803.267,1184.47,806.941,1180.021,817.448Z" transform="translate(-1128.152 -801.293)" fill="#c95138"/>
                <path id="Path_6484" data-name="Path 6484" d="M1171.5,801.99c-10.775,1.547-21.053,5.084-28.7,13.118-6.922,7.274-9.169,22.373-9.841,29.3l-1.449.21a44.228,44.228,0,0,1,7.258-30.172,30.458,30.458,0,0,1,25.939-13.126A31.216,31.216,0,0,1,1171.5,801.99Z" transform="translate(-1128.152 -801.293)" fill="#f56245"/>
                <path id="Path_6485" data-name="Path 6485" d="M1291.53,817.381c-5.3-12.011-1.046-15.417-1.046-15.417a30.455,30.455,0,0,1,25.939,13.126c10.009,14.438,3.858,29.611,3.858,29.611S1296.145,848.893,1291.53,817.381Z" transform="translate(-1253.37 -801.801)" fill="#c95138"/>
                <g id="Group_341" data-name="Group 341" transform="translate(0 42.663)">
                  <circle id="Ellipse_11" data-name="Ellipse 11" cx="6.254" cy="6.254" r="6.254" transform="translate(0.817)" fill="#f7a594"/>
                  <g id="Group_340" data-name="Group 340" transform="translate(0 0.486)">
                    <g id="Group_339" data-name="Group 339" transform="translate(0 4.425)">
                      <path id="Path_6486" data-name="Path 6486" d="M1155.183,1082.81s5.177,9.314,15.226,11.813a1.052,1.052,0,0,1,.767,1.254h0a1.054,1.054,0,0,1-1.267.8,26.72,26.72,0,0,1-16.461-12.742Z" transform="translate(-1145.843 -1072.4)"/>
                      <ellipse id="Ellipse_12" data-name="Ellipse 12" cx="3.993" cy="5.474" rx="3.993" ry="5.474" transform="matrix(0.954, -0.3, 0.3, 0.954, 1.79, 2.399)"/>
                      <ellipse id="Ellipse_13" data-name="Ellipse 13" cx="4.222" cy="5.789" rx="4.222" ry="5.789" transform="translate(0 2.632) rotate(-17.485)" fill="#fff"/>
                      <ellipse id="Ellipse_14" data-name="Ellipse 14" cx="2.434" cy="3.337" rx="2.434" ry="3.337" transform="translate(1.769 4.823) rotate(-17.485)" fill="#b8e5ff"/>
                    </g>
                    <path id="Path_6487" data-name="Path 6487" d="M1134.6,1024.13a.446.446,0,0,1-.44-.519c.716-4.295-.864-8.976-2.738-10.85-2.183-2.183-4.891-.442-5-.367a.446.446,0,0,1-.493-.743c.034-.022,3.425-2.223,6.128.48,2.075,2.075,3.76,6.991,2.987,11.627A.446.446,0,0,1,1134.6,1024.13Z" transform="translate(-1123.834 -1010.785)"/>
                  </g>
                </g>
                <path id="Path_6488" data-name="Path 6488" d="M1158.081,845.363s29.324-7.244,36.371-24.192c4.443-11.68-2.73-17.838-2.73-17.838s7.224,2.833,6.982,14.917C1198.326,837.195,1158.081,845.363,1158.081,845.363Z" transform="translate(-1149.522 -802.913)" fill="#a33a23"/>
                <g id="Group_342" data-name="Group 342" transform="translate(18.657 43.891)">
                  <path id="Path_6489" data-name="Path 6489" d="M1279.039,1032.632c-1.006,0-3.206-.118-3.533-1.129-.39-1.2,3.079-10.632,3.779-12.51a.313.313,0,1,1,.587.219c-2.019,5.419-3.981,11.427-3.77,12.1.175.542,2.08.732,3.315.689h.011a.313.313,0,0,1,.011.626C1279.351,1032.629,1279.213,1032.632,1279.039,1032.632Z" transform="translate(-1261.392 -1017.882)" fill="#ba4228"/>
                  <path id="Path_6490" data-name="Path 6490" d="M1264.41,1114.847s10.719,1.153,19.709-3.919C1281.7,1120.84,1270.749,1126.027,1264.41,1114.847Z" transform="translate(-1252.606 -1091.042)" fill="#a33a23"/>
                  <path id="Path_6491" data-name="Path 6491" d="M1218.052,1020.067h0a1.425,1.425,0,0,1-1.421-1.421V1015.8a1.425,1.425,0,0,1,1.421-1.421h0a1.425,1.425,0,0,1,1.421,1.421v2.842A1.425,1.425,0,0,1,1218.052,1020.067Z" transform="translate(-1214.669 -1014.383)"/>
                  <path id="Path_6492" data-name="Path 6492" d="M1364.732,1021.191h0a1.425,1.425,0,0,1-1.421-1.421v-2.842a1.425,1.425,0,0,1,1.421-1.421h0a1.425,1.425,0,0,1,1.421,1.421v2.842A1.425,1.425,0,0,1,1364.732,1021.191Z" transform="translate(-1331.136 -1015.275)"/>
                  <path id="Path_6493" data-name="Path 6493" d="M1359.407,1053.928c0,.655-1.593,1.186-3.558,1.186s-3.558-.531-3.558-1.186,1.593-1.186,3.558-1.186S1359.407,1053.273,1359.407,1053.928Z" transform="translate(-1322.387 -1044.841)" fill="#f79985"/>
                  <path id="Path_6494" data-name="Path 6494" d="M1214.219,1053.928c0,.655-1.593,1.186-3.558,1.186s-3.558-.531-3.558-1.186,1.593-1.186,3.558-1.186S1214.219,1053.273,1214.219,1053.928Z" transform="translate(-1207.104 -1044.841)" fill="#f79985"/>
                </g>
                <path id="Path_6495" data-name="Path 6495" d="M1434.928,1034.255h0a.313.313,0,0,1-.313-.313c0-.2.033-4.833,2.917-5.607a.313.313,0,1,1,.162.6c-2.421.649-2.453,4.959-2.453,5A.313.313,0,0,1,1434.928,1034.255Z" transform="translate(-1369.097 -981.562)" fill="#ba4228"/>
              </g>
              <g id="Group_346" data-name="Group 346" transform="translate(38.387 49.47)">
                <g id="Group_344" data-name="Group 344" transform="translate(0 40.631)">
                  <path id="Path_6496" data-name="Path 6496" d="M974.132,1271.009l-11.562-13.14,20.31-19.136,9.377,5.9Z" transform="translate(-962.57 -1238.733)" fill="#f7a594"/>
                </g>
                <g id="Group_345" data-name="Group 345" transform="translate(19.794 18.605)">
                  <path id="Path_6497" data-name="Path 6497" d="M1058.673,1154.564c.1-1.128,4.3-21.346,4-20.867,4.174-5.3,13.27,1.3,13.62,9.856,0,0-3.862,14.54-8.945,17.533C1058.178,1166.428,1058.673,1154.564,1058.673,1154.564Z" transform="translate(-1058.668 -1131.797)" fill="#f7a594"/>
                </g>
                <path id="Path_6498" data-name="Path 6498" d="M1078.056,1061.932s7.43-20.565,7.648-20.461,2.1.494,1.791,3.537-5.342,19.793-5.342,19.793Z" transform="translate(-1054.269 -1041.471)" fill="#f7a594"/>
                <path id="Path_6499" data-name="Path 6499" d="M1094.583,1078.247s10.949-18.494,11.156-18.345,2.079.912,1.183,4.01-7.88,16.712-7.88,16.712Z" transform="translate(-1067.392 -1056.105)" fill="#f7a594"/>
                <path id="Path_6500" data-name="Path 6500" d="M1098.65,1136.169a61.331,61.331,0,0,1,8.7-6.716c1.552-.706,10.148-.853,10.148-.853s.438,2.433-2.853,2.736a14.394,14.394,0,0,0-5.658,1.753l-5.391,8.887Z" transform="translate(-1070.621 -1110.654)" fill="#f7a594"/>
                <path id="Path_6501" data-name="Path 6501" d="M1121.7,1166.307s1.9-6.458,6.1-6.831c4.021-.358,8.609,3.746,8.609,3.746s-.1,1.434-2.9.922-3.523-1.232-3.523-1.232l-2.861.845-2.27,6.582Z" transform="translate(-1088.923 -1135.152)" fill="#f7a594"/>
              </g>
              <g id="Group_347" data-name="Group 347" transform="translate(0.024 85.733)">
                <path id="Path_6502" data-name="Path 6502" d="M826.911,1220.346c-1.837-.975-3.687-1.946-5.579-2.82l-31.1,57.875-9.723,13.288c-12.477,20.2,4.213,48.94,32.372,22.554a25.21,25.21,0,0,0,6.816-11.359l7.846-19.472,12.782-31.724,10.242-13.977A218.435,218.435,0,0,0,826.911,1220.346Z" transform="translate(-776.317 -1217.526)" fill="#fff"/>
                <path id="Path_6503" data-name="Path 6503" d="M950.173,1375.637l-.6-.44a62.905,62.905,0,0,0,5.588-9.849c.347-.708.693-1.414,1.044-2.116,2.158-4.162,4.045-8.084,5.939-12.348q1.642-3.776,3.282-7.514c3.665-8.373,7.127-16.282,10.485-24.555l.035-.066c2.649-3.973,5.482-7.909,8.222-11.715,1.14-1.584,2.319-3.222,3.456-4.823l.6.428c-1.138,1.6-2.318,3.242-3.459,4.827-2.729,3.79-5.55,7.71-8.186,11.662-3.357,8.271-6.977,16.541-10.478,24.539q-1.638,3.74-3.282,7.516c-1.9,4.28-3.8,8.215-5.958,12.386-.348.7-.693,1.4-1.039,2.106A63.458,63.458,0,0,1,950.173,1375.637Z" transform="translate(-913.891 -1284.769)" fill="#d9f1ff"/>
              </g>
            </g>
          </g>
        </g>
      </g>
      <g id="Group_355" data-name="Group 355" transform="translate(321.005 307.744)">
        <g id="Group_352" data-name="Group 352" transform="translate(22.166)">
          <path id="Path_6504" data-name="Path 6504" d="M1744.653,1689.251a50.447,50.447,0,0,1-6.969,9.563,59.3,59.3,0,0,1-7.162-23.4,42.731,42.731,0,0,1,11.309-33.356S1758.1,1665.09,1744.653,1689.251Z" transform="translate(-1730.356 -1642.055)" fill="#5fb38c"/>
          <path id="Path_6505" data-name="Path 6505" d="M1745.288,1817.837a50.442,50.442,0,0,1-6.969,9.563,59.3,59.3,0,0,1-7.163-23.4Z" transform="translate(-1730.991 -1770.64)" fill="#379168"/>
          <path id="Path_6506" data-name="Path 6506" d="M1745.5,1705.414c-.347-5.474-.36-11.127-.18-16.551l-4.9-6.112.171-.137,4.743,5.912c.161-4.628.46-9.082.809-13.107l-.082.066-4.943-6.161.171-.137,4.868,6.069c.208-2.385.434-4.617.658-6.642l.007-.064h0c1.145-10.314,2.5-17.628,2.513-17.7l.216.04c-.014.072-1.349,7.281-2.488,17.478l6.706-5.086.133.175-6.873,5.212c-.373,3.373-.75,7.317-1.044,11.584l8.477-5.165.114.188-8.609,5.246a194.366,194.366,0,0,0-.246,24.882Z" transform="translate(-1738.349 -1649.035)" fill="#379168"/>
        </g>
        <g id="Group_353" data-name="Group 353" transform="translate(27.967 14.286)">
          <path id="Path_6507" data-name="Path 6507" d="M1769.151,1754.589a50.45,50.45,0,0,1-10.594,5.271A59.294,59.294,0,0,1,1763,1735.79a42.728,42.728,0,0,1,25.421-24.378S1792.224,1739.352,1769.151,1754.589Z" transform="translate(-1758.519 -1711.412)" fill="#74c9a2"/>
          <path id="Path_6508" data-name="Path 6508" d="M1769.151,1848.565a50.456,50.456,0,0,1-10.594,5.271,59.294,59.294,0,0,1,4.441-24.069Z" transform="translate(-1758.519 -1805.388)" fill="#379168"/>
          <path id="Path_6509" data-name="Path 6509" d="M1785.626,1731.418l-.037-.216-8.3,1.419c5.714-8.521,10.224-14.3,10.27-14.359l-.173-.135c-.046.059-4.622,5.923-10.4,14.546h0l-.036.054c-1.133,1.694-2.363,3.57-3.648,5.59l-1.52-7.63-.215.043,1.543,7.746.1-.021c-2.167,3.41-4.487,7.224-6.764,11.257l-.166.293c-2.661,4.729-5.258,9.751-7.474,14.768l.2.089a194.394,194.394,0,0,1,11.7-21.963l10.059-.683-.015-.219-9.9.672c2.229-3.651,4.383-6.976,6.27-9.8Z" transform="translate(-1758.756 -1716.743)" fill="#379168"/>
        </g>
        <g id="Group_354" data-name="Group 354" transform="translate(0 7.512)">
          <path id="Path_6510" data-name="Path 6510" d="M1657.951,1735.205s2.723-42.885-34.935-56.677C1623.016,1678.528,1617.312,1720.4,1657.951,1735.205Z" transform="translate(-1622.742 -1678.528)" fill="#74c9a2"/>
          <path id="Path_6511" data-name="Path 6511" d="M1663.906,1740.954c-2.593-5.869-5.631-11.744-8.744-17.276l1.791-8.989-.252-.05-1.732,8.7c-2.664-4.717-5.378-9.179-7.913-13.168l.122.024,1.805-9.062-.252-.05-1.778,8.926c-1.5-2.363-2.942-4.558-4.268-6.539l-.042-.063h0c-6.754-10.088-12.108-16.948-12.161-17.017l-.2.158c.053.068,5.33,6.83,12.014,16.8l-9.706-1.66-.043.253,9.946,1.7c2.208,3.3,4.727,7.19,7.335,11.461l-11.586-.787-.018.256,11.768.8a227.331,227.331,0,0,1,13.683,25.694Z" transform="translate(-1628.725 -1684.765)" fill="#379168"/>
        </g>
        <path id="Path_6512" data-name="Path 6512" d="M1721.754,1889.906l-3.794,30.415h-28.123l-3.312-26.551-.482-3.864Z" transform="translate(-1673.005 -1838.856)" fill="#e3733f"/>
        <path id="Path_6513" data-name="Path 6513" d="M1721.754,1889.907l-3.794,30.415h-14.509c9.138-4.067,14.724-13.98,13.7-19.67-1.146-6.356-28.132-6.849-30.623-6.881l-.482-3.864Z" transform="translate(-1673.005 -1838.856)" fill="#db542e"/>
        <rect id="Rectangle_48" data-name="Rectangle 48" width="37.725" height="3.415" transform="translate(12.031 50.851)" fill="#e3733f"/>
        <path id="Path_6514" data-name="Path 6514" d="M1713.762,2028.289h-36.654l-1.274-2.513h39.2Z" transform="translate(-1664.898 -1946.74)" fill="#db542e"/>
      </g>
    </g>
    <g id="laptops" transform="translate(153.829 445.059)">
      <g id="Group_358" data-name="Group 358" transform="translate(309.803 0)">
        <g id="Group_356" data-name="Group 356">
          <path id="Path_6515" data-name="Path 6515" d="M2106.979,1590.384l-28.161,88.625h-75.636v3.75h78.75c8.188-25.641,26.666-83.351,29.977-92.374Z" transform="translate(-2003.182 -1590.384)" fill="#33ace6"/>
          <path id="Path_6516" data-name="Path 6516" d="M2415.64,1590.384l-30.012,92.374h118.789l29.352-92.374Z" transform="translate(-2306.855 -1590.384)" fill="#2786b4"/>
        </g>
        <g id="Group_357" data-name="Group 357" transform="translate(142.039 30.601)">
          <path id="Path_6517" data-name="Path 6517" d="M2736.1,1768.13h-8.774l8.834-29.181h8.774Z" transform="translate(-2720.208 -1738.949)" fill="#fff"/>
          <path id="Path_6518" data-name="Path 6518" d="M2692.782,1797.261l2.656-8.774h29.181l-2.656,8.774Z" transform="translate(-2692.782 -1778.284)" fill="#fff"/>
        </g>
      </g>
      <g id="Group_361" data-name="Group 361" transform="translate(0 0)">
        <g id="Group_359" data-name="Group 359">
          <path id="Path_6519" data-name="Path 6519" d="M1077.827,1590.384l28.161,88.625h75.635v3.75h-78.749c-8.188-25.641-26.666-83.351-29.977-92.374Z" transform="translate(-954.709 -1590.384)" fill="#33ace6"/>
          <path id="Path_6520" data-name="Path 6520" d="M617.221,1590.384l30.012,92.374H528.444l-29.353-92.374Z" transform="translate(-499.092 -1590.384)" fill="#2786b4"/>
        </g>
        <g id="Group_360" data-name="Group 360" transform="translate(53.039 30.601)">
          <path id="Path_6521" data-name="Path 6521" d="M799.97,1768.13h8.774l-8.834-29.181h-8.774Z" transform="translate(-784.021 -1738.949)" fill="#fff"/>
          <path id="Path_6522" data-name="Path 6522" d="M788.432,1797.261l-2.656-8.774H756.6l2.656,8.774Z" transform="translate(-756.595 -1778.284)" fill="#fff"/>
        </g>
      </g>
    </g>
    <g id="icons" transform="translate(149.63 205.954)">
      <g id="profile" transform="translate(0 54.709)">
        <rect id="Rectangle_49" data-name="Rectangle 49" width="93.546" height="102.349" rx="36.762" fill="#b3e4ff"/>
        <g id="Group_364" data-name="Group 364" transform="translate(13.78 13.636)">
          <rect id="Rectangle_50" data-name="Rectangle 50" width="25.366" height="27.695" fill="#fff"/>
          <g id="Group_363" data-name="Group 363" transform="translate(3.841 4.028)">
            <g id="Group_362" data-name="Group 362" transform="translate(3.903)">
              <path id="Path_6523" data-name="Path 6523" d="M588.3,791.084a5.1,5.1,0,0,0,3.959-1.939,4.97,4.97,0,0,0,1.091-3.152,5.07,5.07,0,1,0-10.141,0,4.964,4.964,0,0,0,1.091,3.152A5.115,5.115,0,0,0,588.3,791.084Z" transform="translate(-583.211 -780.903)" fill="#296acc"/>
            </g>
            <path id="Path_6524" data-name="Path 6524" d="M582.2,845.37l0-4.281c-1.461-5.333-17.228-5.118-17.937,0l-.005,4.281Z" transform="translate(-564.26 -825.58)" fill="#296acc"/>
          </g>
        </g>
        <rect id="Rectangle_51" data-name="Rectangle 51" width="34.436" height="3.482" rx="1.741" transform="translate(45.353 14.109)" fill="#80b2ff"/>
        <rect id="Rectangle_52" data-name="Rectangle 52" width="34.436" height="3.482" rx="1.741" transform="translate(45.353 23.467)" fill="#80b2ff"/>
        <rect id="Rectangle_53" data-name="Rectangle 53" width="34.436" height="3.482" rx="1.741" transform="translate(45.353 33.777)" fill="#80b2ff"/>
        <rect id="Rectangle_54" data-name="Rectangle 54" width="32.298" height="3.482" rx="1.741" transform="translate(13.229 51.236)" fill="#80b2ff"/>
        <rect id="Rectangle_55" data-name="Rectangle 55" width="32.298" height="3.482" rx="1.741" transform="translate(13.229 62.13)" fill="#80b2ff"/>
        <rect id="Rectangle_56" data-name="Rectangle 56" width="32.298" height="3.482" rx="1.741" transform="translate(13.229 73.025)" fill="#80b2ff"/>
        <rect id="Rectangle_57" data-name="Rectangle 57" width="32.298" height="3.482" rx="1.741" transform="translate(13.229 83.919)" fill="#80b2ff"/>
        <rect id="Rectangle_58" data-name="Rectangle 58" width="29.47" height="38.057" transform="translate(51.537 50.11)" fill="#fff"/>
      </g>
      <g id="text_box" data-name="text box" transform="translate(199.217 34.16)">
        <g id="Group_365" data-name="Group 365" transform="translate(0 0)">
          <rect id="Rectangle_59" data-name="Rectangle 59" width="88.926" height="44.14" rx="22.07" transform="translate(88.926 44.14) rotate(180)" fill="#80b2ff"/>
          <path id="Path_6525" data-name="Path 6525" d="M1517.166,773.571v19.914l20.3-20.3Z" transform="translate(-1502.488 -736.564)" fill="#80b2ff"/>
        </g>
        <g id="Group_366" data-name="Group 366" transform="translate(16.069 18.606)">
          <circle id="Ellipse_15" data-name="Ellipse 15" cx="3.875" cy="3.875" r="3.875" transform="translate(51.971)" fill="#fff"/>
          <circle id="Ellipse_16" data-name="Ellipse 16" cx="3.875" cy="3.875" r="3.875" transform="translate(38.978)" fill="#fff"/>
          <circle id="Ellipse_17" data-name="Ellipse 17" cx="3.875" cy="3.875" r="3.875" transform="translate(25.986)" fill="#fff"/>
          <circle id="Ellipse_18" data-name="Ellipse 18" cx="3.875" cy="3.875" r="3.875" transform="translate(12.993)" fill="#fff"/>
          <circle id="Ellipse_19" data-name="Ellipse 19" cx="3.875" cy="3.875" r="3.875" fill="#fff"/>
        </g>
      </g>
      <g id="text_box-2" data-name="text box" transform="translate(124.043 2.495)">
        <g id="Group_367" data-name="Group 367">
          <rect id="Rectangle_60" data-name="Rectangle 60" width="59.885" height="29.725" rx="14.863" fill="#80b2ff"/>
          <path id="Path_6526" data-name="Path 6526" d="M1271,561.648v13.41l-13.668-13.668Z" transform="translate(-1220.997 -536.726)" fill="#80b2ff"/>
        </g>
        <g id="Group_368" data-name="Group 368" transform="translate(8.846 12.53)">
          <circle id="Ellipse_20" data-name="Ellipse 20" cx="2.61" cy="2.61" r="2.61" fill="#fff"/>
          <circle id="Ellipse_21" data-name="Ellipse 21" cx="2.61" cy="2.61" r="2.61" transform="translate(8.75)" fill="#fff"/>
          <circle id="Ellipse_22" data-name="Ellipse 22" cx="2.61" cy="2.61" r="2.61" transform="translate(17.499)" fill="#fff"/>
          <circle id="Ellipse_23" data-name="Ellipse 23" cx="2.61" cy="2.61" r="2.61" transform="translate(26.249)" fill="#fff"/>
          <circle id="Ellipse_24" data-name="Ellipse 24" cx="2.61" cy="2.61" r="2.61" transform="translate(34.999)" fill="#fff"/>
        </g>
      </g>
      <g id="calener" transform="translate(454.06 96.9)">
        <path id="Path_6527" data-name="Path 6527" d="M2724.045,899.981h-32.411a8.479,8.479,0,0,0-8.469,8.469v32.412a8.481,8.481,0,0,0,8.469,8.472h32.411a8.481,8.481,0,0,0,8.469-8.472V908.45A8.479,8.479,0,0,0,2724.045,899.981Zm0,47.646h-32.411a6.771,6.771,0,0,1-6.762-6.765V912.177h45.935v28.685A6.771,6.771,0,0,1,2724.045,947.627Z" transform="translate(-2683.164 -899.981)" fill="#80b2ff"/>
        <g id="Group_369" data-name="Group 369" transform="translate(12.751 17.921)">
          <rect id="Rectangle_61" data-name="Rectangle 61" width="6.73" height="6.489" fill="#80b2ff"/>
          <rect id="Rectangle_62" data-name="Rectangle 62" width="6.73" height="6.489" transform="translate(8.831)" fill="#fff"/>
          <rect id="Rectangle_63" data-name="Rectangle 63" width="6.73" height="6.489" transform="translate(17.118)" fill="#fff"/>
          <rect id="Rectangle_64" data-name="Rectangle 64" width="6.73" height="6.489" transform="translate(25.949)" fill="#fff"/>
        </g>
        <g id="Group_370" data-name="Group 370" transform="translate(3.92 26.676)">
          <rect id="Rectangle_65" data-name="Rectangle 65" width="6.73" height="6.489" fill="#fff"/>
          <rect id="Rectangle_66" data-name="Rectangle 66" width="6.73" height="6.489" transform="translate(8.831)" fill="#fff"/>
          <rect id="Rectangle_67" data-name="Rectangle 67" width="6.73" height="6.489" transform="translate(17.661)" fill="#fff"/>
          <rect id="Rectangle_68" data-name="Rectangle 68" width="6.73" height="6.489" transform="translate(25.949)" fill="#fff"/>
          <rect id="Rectangle_69" data-name="Rectangle 69" width="6.73" height="6.489" transform="translate(34.779)" fill="#fff"/>
        </g>
        <g id="Group_371" data-name="Group 371" transform="translate(3.92 35.432)">
          <rect id="Rectangle_70" data-name="Rectangle 70" width="6.73" height="6.489" fill="#fff"/>
          <rect id="Rectangle_71" data-name="Rectangle 71" width="6.73" height="6.489" transform="translate(8.831)" fill="#fff"/>
          <rect id="Rectangle_72" data-name="Rectangle 72" width="6.73" height="6.489" transform="translate(17.661)" fill="#fff"/>
          <rect id="Rectangle_73" data-name="Rectangle 73" width="6.73" height="6.489" transform="translate(25.949)" fill="#fff"/>
        </g>
      </g>
      <g id="Group_372" data-name="Group 372" transform="translate(238.06 111.531)">
        <g id="bag" transform="translate(0)">
          <circle id="Ellipse_25" data-name="Ellipse 25" cx="29.055" cy="29.055" r="29.055" fill="#a6dfff"/>
        </g>
        <path id="Path_6528" data-name="Path 6528" d="M1690.325,1033.858l-.6.6-.078-.078-6.277,6.278,7.617,7.616,3.4-3.4a109.867,109.867,0,0,1,12.229,12.212l-3.4,3.4,7.616,7.616,1.258-1.258a.893.893,0,0,1-.146.195l5.789-5.789C1720.776,1058.205,1693.377,1030.806,1690.325,1033.858Z" transform="translate(-1673.302 -1020.726)" fill="#fff"/>
      </g>
      <g id="Group_373" data-name="Group 373" transform="translate(419.285 55.597)">
        <g id="_" data-name="+">
          <circle id="Ellipse_26" data-name="Ellipse 26" cx="15.599" cy="15.599" r="15.599" fill="#a6dfff"/>
        </g>
        <path id="Path_6529" data-name="Path 6529" d="M2592.181,735.67H2580.73V721.627h2.164v11.879h9.287Z" transform="translate(-2567.053 -717.061)" fill="#fff"/>
      </g>
      <g id="Group_376" data-name="Group 376" transform="translate(335.117 0)">
        <g id="Group_374" data-name="Group 374">
          <g id="_2" data-name="+">
            <circle id="Ellipse_27" data-name="Ellipse 27" cx="14.775" cy="14.775" r="14.775" fill="#a6dfff"/>
          </g>
        </g>
        <g id="Group_375" data-name="Group 375" transform="translate(9.845 7.486)">
          <path id="Path_6530" data-name="Path 6530" d="M2156.362,475.965v-.4c0-1.382.565-2.428,2.114-3.81a2.727,2.727,0,0,0,1.13-2.135,1.346,1.346,0,0,0-1.465-1.444c-1.193,0-1.591.816-1.7,1.821h-2.951c.1-1.758,1.214-4.145,4.689-4.124,3.433,0,4.438,2.219,4.438,3.852,0,1.319-.418,2.219-1.926,3.621a3.036,3.036,0,0,0-1.193,2.386v.23Zm0,4.542v-3.475h3.14v3.475Z" transform="translate(-2153.494 -465.875)" fill="#fff"/>
        </g>
      </g>
    </g>
  </g>
</svg>
