<svg id="LOGO" xmlns="http://www.w3.org/2000/svg" width="85.042" height="80.549" viewBox="0 0 85.042 80.549">
  <path id="Path_692" data-name="Path 692" d="M147.27,49.5c-.714-.217-1.409-1.132-2.109-2.016-1.89-2.38-4.041-3.788-8.3-4.586a23.549,23.549,0,0,1-3.558-.939,9.2,9.2,0,0,1-2.812-1.646c-1.825-1.412-4.943-3.111-11.18-3.1a15.285,15.285,0,0,0-10.964,4.465c-2.01,2.018-2.059,4.185-2.72,4.236-4.836.372-10.012,1.82-12.162,6.421-1.458,3.122-4.354,4.439-4.188,9.923.216,7.137,5.768,10.665,12.1,12.238,5.22,1.294,11.718,2.91,19.345,8.959a19.025,19.025,0,0,0,10.608,4.2c3.117,17.243,3.952,17.42,5.005,17.642l.348.036c1.494,0,2.936-1.048,5.505-13.888.437-2.208.841-3.435,1.181-5.409a21.877,21.877,0,0,0,10.789-7.189c2.576-3.25,3.007-8.472,3.32-11.569.084-.822.141-1.671.162-2.532.166-6.888-1.837-12.676-10.371-15.252ZM93.9,57.028c.141,8.248,9.765,11.153,16.506,13.436,1.143.389,1.631-1.415.5-1.8-5.348-1.811-11.525-4.166-14.461-9.331-4.519-7.945,5.862-11.459,11.53-8.793,1.982.933,5.094,5.755,12.077,6.665,1.189.155,1.677-1.57.5-1.8-4.914-.956-15.587-7.391-10.682-11.752a14.671,14.671,0,0,1,9.45-3.952c3.826-.147,8.076,1.354,9.656,2.58a25.247,25.247,0,0,1,8.51,12.765.933.933,0,0,0,1.8-.5,23.491,23.491,0,0,0-4.442-9.566c.5.122,4.8.33,8.038,3.432,3.77,3.609,1.992,11.38-1.979,13.649-4.376,2.5-8.479-.967-10.445-4.725-.063-.119-2.8-7.775-10.282-10.279-1.135-.379-2.027,1.094-.943,1.614,4.6,2.2,12.863,8.317,8.142,13.982-5.392,6.472-15.407.293-18.917-5.016-.66-1-2.279-.065-1.613.943,3.077,4.649,9.82,9.311,15.769,8.6a4.784,4.784,0,0,1,1.742.178c3.331,2.5,2.834,7.92-.7,9.4-6.015,2.52-12.092-2.3-21.662-4.679C88.6,68.766,92.923,58.661,93.895,57.028Zm58.314,19.3c-2.27,2.862-8.894,11.471-22.427,2.78-1.015-.651-1.514,1.163-.5,1.8,3.685,2.3,7.126,4.131,11.54,4.227-.321,1.837-.679,3.816-1.079,5.833-1.319,6.584-2.273,9.573-2.85,10.922A157.6,157.6,0,0,1,133.6,86.245l-.181-1-1.017-.023a16.586,16.586,0,0,1-10.141-3.711c-1.123-.889-2.221-1.671-3.3-2.394,2.862.369,5.593.062,7.792-2.642a7.017,7.017,0,0,0,1.426-3.1c3.019,3.894,8.433,6.023,13.2,6.168,1.2.038,1.2-1.828,0-1.865a16.427,16.427,0,0,1-11.075-4.72A7.217,7.217,0,0,1,127.8,67.2c.194-1.943,2.84-2.406,5.8-2.562s5.075.754,7.683-.694a11.827,11.827,0,0,0,6.1-11.556,5.063,5.063,0,0,1,2.459.98,7.644,7.644,0,0,1,1.837,1.878,11.068,11.068,0,0,1-4.209,8.23c-.956.719.325,2,1.318,1.323,3.333-2.282,3.981-4.3,4.8-8.036,1.323,1.555,1.984,5.172,1.381,6.652-2.675,6.564-13.222,10-18.942,5.186-.916-.767-2.243.544-1.323,1.323,5.97,5.022,15.686,2.734,20.32-3.106-.007.07-.007.145-.015.214-.28,2.792-.668,6.615-2.792,9.293ZM87.733,61.484a1.244,1.244,0,0,1-1.245,1.244H81.813a1.245,1.245,0,1,1,0-2.489h4.676a1.244,1.244,0,0,1,1.244,1.245Zm34.89-28.359V26.033a1.245,1.245,0,1,1,2.489,0v7.092a1.245,1.245,0,1,1-2.489,0ZM85.691,43.369a1.244,1.244,0,0,1,1.759-1.761l5.012,5.014A1.244,1.244,0,0,1,90.7,48.381Zm74.337,1.007-5.6,3.918A1.245,1.245,0,0,1,153,46.252l5.606-3.917a1.244,1.244,0,1,1,1.424,2.041ZM140.28,37.764l3.342-5.551a1.245,1.245,0,1,1,2.135,1.283l-3.342,5.551a1.245,1.245,0,0,1-2.135-1.283Zm-38.3-6.874a1.244,1.244,0,0,1,2.275-1.007l2.592,5.85a1.241,1.241,0,0,1-.634,1.641,1.227,1.227,0,0,1-.5.107,1.245,1.245,0,0,1-1.137-.742Zm62.383,32.931h-3.75a1.245,1.245,0,0,1,0-2.489h3.75a1.245,1.245,0,1,1,0,2.489Z" transform="translate(-80.568 -24.787)" fill="#38b8ed"/>
</svg>
