<svg xmlns="http://www.w3.org/2000/svg" width="37.627" height="37.02" viewBox="0 0 37.627 37.02">
  <g id="SIGNUP" transform="translate(-4 -181)">
    <path id="Path_691" data-name="Path 691" d="M105.614,16.8a18.512,18.512,0,1,0,18.814,18.51A18.685,18.685,0,0,0,105.614,16.8Zm0,35.444a16.937,16.937,0,1,1,17.212-16.934A17.094,17.094,0,0,1,105.614,52.245ZM109.8,41.792c-.335-3.018-2.887-4.681-7.186-4.681l-.1,0-.09,0c-4.3,0-6.851,1.662-7.185,4.683-.008.077-.012.217-.022.833l-.005.3c0,.019,0,.037,0,.056s0,.054.007.08a1.416,1.416,0,0,0,.039.148c.009.025.021.048.032.072s.022.045.035.066.029.042.045.063a.714.714,0,0,0,.048.059c.019.021.041.038.062.057s.025.026.04.037l.023.016.011.008a11.332,11.332,0,0,0,6.96,2.216,11.6,11.6,0,0,0,6.959-2.216l.012-.008.018-.013c.015-.011.027-.025.041-.037a.863.863,0,0,0,.064-.058c.017-.018.032-.038.047-.058s.032-.041.046-.064.024-.043.035-.065a.746.746,0,0,0,.033-.073c.008-.023.015-.046.021-.07a.66.66,0,0,0,.019-.077.746.746,0,0,0,.007-.083c0-.019.005-.037,0-.057l0-.271c-.011-.637-.015-.782-.023-.864Zm-7.28,2.439a9.8,9.8,0,0,1-5.7-1.694c0-.259.008-.518.011-.575.241-2.173,2.121-3.275,5.625-3.275h.083l.074,0c3.47,0,5.353,1.1,5.592,3.253,0,.074.009.334.013.595a10.047,10.047,0,0,1-5.7,1.7Zm0-7.28c2.282,0,4.14-2.167,4.14-4.831a4.144,4.144,0,1,0-8.279,0C98.378,34.784,100.235,36.951,102.518,36.951Zm0-7.581a2.483,2.483,0,0,1,2.539,2.75c0,1.795-1.139,3.255-2.539,3.255s-2.539-1.46-2.539-3.255A2.483,2.483,0,0,1,102.518,29.37Zm13.671.329h-2.562v-2.52a.8.8,0,0,0-1.6,0V29.7h-2.562a.788.788,0,1,0,0,1.575h2.562v2.52a.8.8,0,0,0,1.6,0v-2.52h2.562a.788.788,0,1,0,0-1.575Z" transform="translate(-82.8 164.199)" fill="#fff"/>
  </g>
</svg>
