<svg id="SIGN_IN" data-name="SIGN IN" xmlns="http://www.w3.org/2000/svg" width="35.58" height="36.135" viewBox="0 0 35.58 36.135">
  <path id="Path_689" data-name="Path 689" d="M201.959,100.789a18.553,18.553,0,0,0-9.507,2.6,18.154,18.154,0,0,0-6.757,7.076l4.063,2.1a13.749,13.749,0,0,1,9.439-6.986,13.941,13.941,0,0,1,11.469,2.777,13.412,13.412,0,0,1,0,21A13.941,13.941,0,0,1,199.2,132.13a13.749,13.749,0,0,1-9.439-6.986l-4.063,2.1a18.261,18.261,0,0,0,9.4,8.369,18.644,18.644,0,0,0,12.672.38,18.313,18.313,0,0,0,9.9-7.789,17.865,17.865,0,0,0-3.815-23.111,18.544,18.544,0,0,0-11.9-4.306Z" transform="translate(-184.743 -100.787)" fill="#38b8ed"/>
  <path id="Path_690" data-name="Path 690" d="M189.794,202.318l3.248,3.2,7.936-7.809a2.233,2.233,0,0,0,0-3.2l-7.936-7.809-3.248,3.2,4.017,3.952H176.4v4.517h17.412Z" transform="translate(-176.399 -178.039)" fill="#38b8ed"/>
</svg>
